/* XPM */
static char * pmbserver32x32_xpm[] = {
"24 24 147 2",
"  	c None",
". 	c #FEFEFE",
"+ 	c #FDFDFE",
"@ 	c #AAB1D4",
"# 	c #FF0006",
"$ 	c #F0F1F7",
"% 	c #C5CAE2",
"& 	c #FCFCFD",
"* 	c #5F6BAF",
"= 	c #F1F2F7",
"- 	c #F8F9FB",
"; 	c #A3AAD1",
"> 	c #606BAF",
", 	c #939BC8",
"' 	c #F2F3F8",
") 	c #E0E2EF",
"! 	c #5864AB",
"~ 	c #5662AA",
"{ 	c #5E69AE",
"] 	c #E2E4F0",
"^ 	c #5D69AD",
"/ 	c #959DCA",
"( 	c #EFF1F7",
"_ 	c #F7F7FA",
": 	c #6C78B6",
"< 	c #4E5CA6",
"[ 	c #F0F2F7",
"} 	c #D8DBEB",
"| 	c #636EB1",
"1 	c #ECEDF5",
"2 	c #505CA7",
"3 	c #EDEEF6",
"4 	c #A7AED3",
"5 	c #848DC1",
"6 	c #E9EBF3",
"7 	c #8992C3",
"8 	c #8791C3",
"9 	c #8792C3",
"0 	c #9FA7CF",
"a 	c #CACDE4",
"b 	c #505DA7",
"c 	c #868FC2",
"d 	c #4E5BA6",
"e 	c #525FA8",
"f 	c #BFC4DF",
"g 	c #4D5AA6",
"h 	c #972756",
"i 	c #757FBA",
"j 	c #929AC8",
"k 	c #C8CCE3",
"l 	c #C8CDE3",
"m 	c #F5F5F9",
"n 	c #818AC0",
"o 	c #AAB0D4",
"p 	c #9DA4CD",
"q 	c #F3F4F8",
"r 	c #8089BF",
"s 	c #CCD0E5",
"t 	c #BABFDC",
"u 	c #BFC4DE",
"v 	c #7782BB",
"w 	c #7E87BE",
"x 	c #8C94C5",
"y 	c #D0D4E7",
"z 	c #8A93C4",
"A 	c #A8AED3",
"B 	c #E0E3EF",
"C 	c #4653A2",
"D 	c #CA132E",
"E 	c #BDC2DD",
"F 	c #7681BB",
"G 	c #7580BB",
"H 	c #7883BC",
"I 	c #808AC0",
"J 	c #4654A2",
"K 	c #B9BEDC",
"L 	c #6F4785",
"M 	c #4F5BA6",
"N 	c #F5F6F9",
"O 	c #4B4794",
"P 	c #B0B6D7",
"Q 	c #4957A4",
"R 	c #E8EAF3",
"S 	c #4F5CA7",
"T 	c #F5F6FA",
"U 	c #AFB5D7",
"V 	c #AFB5D6",
"W 	c #A2A9D0",
"X 	c #DFE1EE",
"Y 	c #FBFBFD",
"Z 	c #F4F5F9",
"` 	c #4B4793",
" .	c #C0C5DF",
"..	c #8993C4",
"+.	c #9199C7",
"@.	c #919AC7",
"#.	c #929BC8",
"$.	c #DDDFED",
"%.	c #5663AA",
"&.	c #B6BBDA",
"*.	c #F9F9FC",
"=.	c #E9EBF4",
"-.	c #E9EAF3",
";.	c #B7BCDA",
">.	c #4856A3",
",.	c #CACEE4",
"'.	c #EDEEF5",
").	c #9098C7",
"!.	c #A8AFD3",
"~.	c #C4C8E1",
"{.	c #B2B8D8",
"].	c #8D96C6",
"^.	c #7F89BF",
"/.	c #7781BB",
"(.	c #B1B7D8",
"_.	c #D1D5E8",
":.	c #FAFBFC",
"<.	c #B4B9D9",
"[.	c #5561AA",
"}.	c #873B70",
"|.	c #989FCB",
"1.	c #4351A1",
"2.	c #8891C3",
"3.	c #E3E6F1",
"4.	c #6D77B6",
"5.	c #6B76B5",
"6.	c #6B75B5",
"7.	c #6A75B5",
"8.	c #6F78B6",
"9.	c #858EC2",
"0.	c #A4ABD1",
"a.	c #5562AA",
"b.	c #616DB0",
"c.	c #FBFBFC",
"d.	c #6F7AB6",
"e.	c #949BC9",
"f.	c #ABB0D4",
"g.	c #F9F9FB",
"h.	c #EBECF5",
"i.	c #959CC9",
"j.	c #939BC9",
"k.	c #949CC9",
"l.	c #E6E8F2",
"m.	c #B8BDDB",
"n.	c #6E79B6",
"o.	c #D0D3E7",
"p.	c #5E6AAE",
". . . . . . . . . . . . . . . . . + @ # $ . . . ",
". . . . . . . . . . . . . . . . . % # # $ . . . ",
". . . . . . . . . . . . . . . . & * # # $ . . . ",
". . . . . . . . . . . . . . . . = # # # $ . . . ",
". - ; > , ' . ) ! ~ ~ ~ ~ ~ { ] $ # # # ^ / ( . ",
"_ : # # # < [ } # # # # # # # | 1 # # # # # 2 3 ",
"4 # # # # # 5 6 7 8 9 8 9 0 # # a # # # b # # c ",
"d # e f g # h } i j k l l m n # o # # p q r # # ",
"# # s . t # # u v w x y q + z # A # # ' . B # # ",
"# C _ . = D # E v F G H I s J # K # L . . ' # # ",
"# M & . N O # P # # # # # # # Q R # L . . ' # # ",
"# S & . T O # U # # # # # # # P $ # L . . q # # ",
"# d & . T O # V # # # # # # # W $ # L . . q # # ",
"# S & . N O # V # # # # # # # h X # L . . ' # # ",
"# d Y . Z ` #  .7 ..+.@.#.$.%.# &.# # *.. =.# # ",
"# # -.. ) # # ;.>.v ,.'.. . ).# !.# # ~.. {.# # ",
"# # ].R ^.# O } /.F /.(._.:./.# <.[.# }.|.# # # ",
"# # # 1.# # 2.3.4.5.6.7.8.9.# # } &.# # # # # 0.",
"# # # # # a.' } # # # # # # # b.c.:.5 # # # d._ ",
"# # # e.f.g.. h.i.j.k.j.k.k.j.l.. . & m.j.&.*.. ",
"# # # . . . . . . . . . . . . . . . . . . . . . ",
"n.# # . . . . . . . . . . . . . . . . . . . . . ",
"o.# # . . . . . . . . . . . . . . . . . . . . . ",
"+ m.p.. . . . . . . . . . . . . . . . . . . . . "};
